<?xml version="1.0" encoding="UTF-8"?>
<svg width="361px" height="156px" viewBox="0 0 361 156" version="1.1" xmlns="http://www.w3.org/2000/svg" xmlns:xlink="http://www.w3.org/1999/xlink">
    <!-- Generator: Sketch 49 (51002) - http://www.bohemiancoding.com/sketch -->
    <title>TextToSpeech_</title>
    <desc>Created with Sketch.</desc>
    <defs></defs>
    <g id="Page-1" stroke="none" stroke-width="1" fill="none" fill-rule="evenodd">
        <g id="cloud-text-to-speech" transform="translate(-1003.000000, -467.000000)">
            <g id="Benefits" transform="translate(126.000000, 456.000000)">
                <g id="High-Fidelity">
                    <g id="TextToSpeech2" transform="translate(876.000000, 11.000000)">
                        <g>
                            <g id="laptop" transform="translate(0.959620, 0.261430)">
                                <g id="Group-3-Copy-6" transform="translate(138.061758, 109.927406) scale(-1, 1) translate(-138.061758, -109.927406) translate(0.061758, 64.427406)" fill="#E6E7E8">
                                    <path d="M0,90.8743499 C3.79071012,73.9474916 18.6272061,61.3163078 36.3910607,61.3163078 C37.6489481,61.3163078 38.8910054,61.3881866 40.1196679,61.5002689 C51.259217,25.8398349 84.0142159,0 122.733525,0 C158.242969,0 188.735475,21.7719797 202.138734,52.8894272 C209.487573,48.4207561 218.030979,45.7929143 227.203937,45.7929143 C252.675853,45.7929143 273.567987,65.5790887 275.944944,90.8743499 L0,90.8743499 Z" id="Fill-1"></path>
                                </g>
                                <rect id="Rectangle-37" fill="#FFFFFF" x="137.598575" y="6.26826123" width="191.192399" height="129.938242"></rect>
                                <path d="M143.895979,128.325579 L325.510943,128.325579 L325.510943,8.43412223 L143.895979,8.43412223 L143.895979,128.325579 Z M143.11502,0.108326614 C136.819053,0.108326614 135.570184,3.95317903 135.570184,10.2491457 L135.570184,137.257493 L135.570184,138.674543 L135.570184,142.774165 C135.570184,142.774165 123.431174,154.968125 134.461188,154.968125 L321.984748,154.968125 C333.016427,154.968125 333.724119,142.774165 333.724119,142.774165 L333.724119,138.674543 L333.724119,137.257493 L333.724119,10.2491457 C333.724119,3.95317903 327.376533,0.108326614 321.080566,0.108326614 L143.11502,0.108326614 Z" id="Fill-1" fill="#414141"></path>
                                <path d="M332.306736,134.987048 L238.493336,134.987048 L28.999667,134.987048 L28.999667,142.203848 C28.999667,142.203848 29.2660924,154.968958 40.2961065,154.968958 L227.819666,154.968958 C238.851345,154.968958 237.144557,142.203848 237.144557,142.203848 L237.144557,134.987048 L332.306736,134.987048 Z" id="Fill-3" fill="#9D9D9D"></path>
                            </g>
                            <g id="speech" transform="translate(157.000000, 17.000000)">
                                <g transform="translate(0.000000, 13.000000)">
                                    <g id="bubble" transform="translate(0.574418, 0.836693)" fill="#E6E7E8">
                                        <path d="M26.3438441,0.121747901 L184.841978,0.121747901 C186.99171,0.121747901 188.735245,1.70535498 188.735245,3.65921717 L188.735245,74.5094205 C188.735245,76.4632827 186.99171,78.0468898 184.841978,78.0468898 L26.3438441,78.0468898 C24.1934631,78.0468898 22.4505774,76.4632827 22.4505774,74.5094205 L22.4505774,3.65921717 C22.4505774,1.70535498 24.1934631,0.121747901 26.3438441,0.121747901" id="Fill-110"></path>
                                        <polyline id="Fill-203" points="22.5250773 42.8445575 0.656659389 60.6150344 22.5250773 60.2766165"></polyline>
                                    </g>
                                    <g transform="translate(45.607610, 12.266764)" fill="#9D9D9D">
                                        <path d="M4.40070617,35.2503412 L3.29305504,35.2503412 C1.87713134,35.2503412 0.728653325,34.1065595 0.728653325,32.6956988 L0.728653325,21.5809704 C0.728653325,20.1701097 1.87713134,19.026328 3.29305504,19.026328 L4.40070617,19.026328 C5.81662987,19.026328 6.9645162,20.1701097 6.9645162,21.5809704 L6.9645162,32.6956988 C6.9645162,34.1065595 5.81662987,35.2503412 4.40070617,35.2503412" id="Fill-167"></path>
                                        <path d="M18.6408869,43.828999 L17.5332358,43.828999 C16.1173121,43.828999 14.968834,42.6852173 14.968834,41.2743566 L14.968834,18.760723 C14.968834,17.3498623 16.1173121,16.205491 17.5332358,16.205491 L18.6408869,16.205491 C20.0568106,16.205491 21.2046969,17.3498623 21.2046969,18.760723 L21.2046969,41.2743566 C21.2046969,42.6852173 20.0568106,43.828999 18.6408869,43.828999" id="Fill-169"></path>
                                        <path d="M32.8810676,50.0473394 L31.7734165,50.0473394 C30.3569011,50.0473394 29.2090148,48.9035576 29.2090148,47.492697 L29.2090148,8.79691017 C29.2090148,7.38545992 30.3569011,6.24167819 31.7734165,6.24167819 L32.8810676,6.24167819 C34.2969913,6.24167819 35.4448776,7.38545992 35.4448776,8.79691017 L35.4448776,47.492697 C35.4448776,48.9035576 34.2969913,50.0473394 32.8810676,50.0473394" id="Fill-171"></path>
                                        <path d="M47.1213075,54.4603912 L46.0136564,54.4603912 C44.5977327,54.4603912 43.4492546,53.3166095 43.4492546,51.9057489 L43.4492546,9.23679447 C43.4492546,7.82593381 44.5977327,6.6815625 46.0136564,6.6815625 L47.1213075,6.6815625 C48.5372312,6.6815625 49.6851175,7.82593381 49.6851175,9.23679447 L49.6851175,51.9057489 C49.6851175,53.3166095 48.5372312,54.4603912 47.1213075,54.4603912" id="Fill-173"></path>
                                        <path d="M61.3614882,54.5919261 L60.2538371,54.5919261 C58.8379134,54.5919261 57.6894354,53.4481444 57.6894354,52.0372838 L57.6894354,3.4601661 C57.6894354,2.04930544 58.8379134,0.905523709 60.2538371,0.905523709 L61.3614882,0.905523709 C62.7774119,0.905523709 63.9252982,2.04930544 63.9252982,3.4601661 L63.9252982,52.0372838 C63.9252982,53.4481444 62.7774119,54.5919261 61.3614882,54.5919261" id="Fill-175"></path>
                                        <path d="M75.6016689,44.6109566 L74.4940178,44.6109566 C73.0780941,44.6109566 71.9296161,43.4671749 71.9296161,42.0563142 L71.9296161,8.87721072 C71.9296161,7.46576048 73.0780941,6.32197875 74.4940178,6.32197875 L75.6016689,6.32197875 C77.0175926,6.32197875 78.1654789,7.46576048 78.1654789,8.87721072 L78.1654789,42.0563142 C78.1654789,43.4671749 77.0175926,44.6109566 75.6016689,44.6109566" id="Fill-177"></path>
                                        <path d="M89.8418496,43.0046508 L88.7341985,43.0046508 C87.3182748,43.0046508 86.1697968,41.860869 86.1697968,40.4500084 L86.1697968,18.7606051 C86.1697968,17.3497444 87.3182748,16.2059627 88.7341985,16.2059627 L89.8418496,16.2059627 C91.2577733,16.2059627 92.4056597,17.3497444 92.4056597,18.7606051 L92.4056597,40.4500084 C92.4056597,41.860869 91.2577733,43.0046508 89.8418496,43.0046508" id="Fill-179"></path>
                                        <path d="M104.08203,42.4780984 L102.974379,42.4780984 C101.558456,42.4780984 100.409978,41.3343167 100.409978,39.9234561 L100.409978,18.7605461 C100.409978,17.3496855 101.558456,16.2059037 102.974379,16.2059037 L104.08203,16.2059037 C105.497954,16.2059037 106.64584,17.3496855 106.64584,18.7605461 L106.64584,39.9234561 C106.64584,41.3343167 105.497954,42.4780984 104.08203,42.4780984" id="Fill-181"></path>
                                        <path d="M118.32227,38.0371595 L117.214619,38.0371595 C115.798695,38.0371595 114.650217,36.8933778 114.650217,35.4825171 L114.650217,21.9534659 C114.650217,20.5426052 115.798695,19.3988235 117.214619,19.3988235 L118.32227,19.3988235 C119.738194,19.3988235 120.88608,20.5426052 120.88608,21.9534659 L120.88608,35.4825171 C120.88608,36.8933778 119.738194,38.0371595 118.32227,38.0371595" id="Fill-183"></path>
                                    </g>
                                </g>
                                <g id="checkmark" transform="translate(173.000000, 0.000000)">
                                    <circle id="Oval" fill="#4285F4" cx="16" cy="16" r="16"></circle>
                                    <path d="M9.77216133,15.6185262 C9.11646976,15.1047613 8.16310536,15.2130959 7.64276234,15.8604983 C7.12241932,16.5079006 7.23214101,17.4492126 7.88783259,17.9629775 L13.7201122,22.5328399 C14.3584957,23.0330431 15.2832094,22.945263 15.8133789,22.334133 L24.3211372,12.5271797 C24.8656809,11.8994804 24.7917546,10.9547704 24.1560184,10.4171109 C23.5202822,9.87945142 22.5634763,9.95244307 22.0189327,10.5801423 L14.460884,19.2923586 L9.77216133,15.6185262 Z" id="Path-58" fill="#FFFFFF" fill-rule="nonzero"></path>
                                </g>
                            </g>
                        </g>
                    </g>
                </g>
            </g>
        </g>
    </g>
</svg>