<?xml version="1.0"?><svg width="3000" height="3000" xmlns="http://www.w3.org/2000/svg">
 <title>clef</title>
 <g>
  <title>Layer 1</title>
  <path id="clef" d="m955.64978,2286.263916c-150.866272,-8.768799 -304.898865,-103.396484 -397.021301,-212.004883c-106.805817,-125.923706 -150.840027,-297.129028 -139.560638,-437.725464c33.135376,-413.110596 482.383636,-657.278381 648.68399,-837.728271c111.314575,-120.786133 134.650146,-179.667542 159.51355,-241.789001c48.135864,-120.247131 55.890015,-261.134308 -39.541504,-271.652649c-91.112793,-10.042603 -166.073059,133.244293 -199.55188,231.170349c-30.106689,88.078979 -50.117859,176.448669 -32.004333,309.190796c8.139893,59.637268 232.19574,1724.347961 235.975037,1750.152161c37.734009,257.873047 -109.739258,364.578613 -260.283203,383.55957c-325.089905,40.984375 -429.400909,-289.380859 -283.698425,-414.850342c112.170532,-96.604492 275.362976,-13.668457 266.546631,145.152832c-7.806641,140.670898 -145.739197,144.814697 -180.983765,141.60083c54.103394,97.032715 461.981384,147.727051 399.352234,-290.664551c-8.800415,-61.604004 -215.841919,-1625.99408 -220.916016,-1661.000427c-37.982178,-262.069885 -43.769836,-469.507965 92.772583,-711.582489c50.408447,-89.363411 130.072754,-147.055498 169.180908,-139.502464c8.59436,1.659588 17.156982,4.815323 23.954224,11.829124c104.739258,107.921097 136.870361,347.241821 125.395386,484.720001c-11.75,140.765625 -18.298706,286.489197 -158.266357,456.426025c-54.166626,65.763306 -219.457581,210.635864 -314.228088,293.867798c-133.159668,116.943726 -229.743164,219.082275 -282.001648,342.299927c-58.72818,138.4823 -68.67038,312.806152 63.976746,467.483521c76.302612,87.391846 202.903015,149.4021 309.449768,150.723877c296.256958,3.678467 382.771362,-142.356934 385.535767,-307.737671c4.550781,-272.318359 -324.207214,-375.276245 -459.370117,-188.034424c-78.369324,108.571045 -43.923401,222.845459 8.710632,277.212891c18.066162,18.658203 38.24646,32.870972 57.338013,40.794067c6.918762,2.869873 23.193176,10.438965 18.573547,21.517822c-3.842712,9.217773 -11.305908,9.736084 -18.103149,8.921875c-85.235352,-10.222412 -179.614868,-91.694214 -202.823608,-231.830933c-33.817261,-204.250854 146.426392,-446.541992 403.712769,-406.916016c168.44104,25.941772 324.831177,170.877686 311.11499,440.765137c-11.760376,231.307251 -203.521606,412.365356 -491.432739,395.630981z" fill="white" transform="rotate(-0.027732 932.637 1495.43)"/>
 </g>
</svg>