<?xml version="1.0" encoding="iso-8859-1"?>
<!-- Generator: Adobe Illustrator 19.0.0, SVG Export Plug-In . SVG Version: 6.00 Build 0)  -->
<svg version="1.1" id="Capa_1" xmlns="http://www.w3.org/2000/svg" xmlns:xlink="http://www.w3.org/1999/xlink" x="0px" y="0px"
	 viewBox="0 0 512 512" style="enable-background:new 0 0 512 512;" xml:space="preserve">
<path style="fill:#FCD2BE;" d="M312.117,38.671v76.783c0,35.188,28.538,63.725,63.736,63.725c9.428,0,18.369-2.048,26.419-5.718
	v-0.01c19.474-8.881,33.698-27.28,36.708-49.259c2.828-0.993,5.484-2.616,7.755-4.886c8.029-8.019,8.029-21.036,0-29.055
	c-8.019-8.039-21.046-8.039-29.075,0l-5.353-30.687l-3.65-20.894L312.117,38.671L312.117,38.671z"/>
<path style="fill:#FAB998;" d="M402.271,173.451c19.474-8.881,33.698-27.28,36.708-49.259c2.828-0.993,5.484-2.616,7.755-4.886
	c8.029-8.019,8.029-21.036,0-29.055c-8.019-8.039-21.046-8.039-29.075,0l-5.353-30.687l-16.778,3.406
	C402.585,75.167,432.38,119.681,402.271,173.451z"/>
<path style="fill:#50515B;" d="M439.238,59.626v25.841c-7.269-2.656-15.734-1.054-21.573,4.785V74.832
	c-4.227,0-7.867-0.598-11.02-1.642c-18.765-6.143-19.829-27.544-19.829-27.544c-20.326,20.316-74.694,13.98-74.694,13.98
	c0-14.355,5.819-27.351,15.227-36.759c9.398-9.398,22.394-15.217,36.749-15.217h23.165C415.962,7.65,439.238,30.916,439.238,59.626z
	"/>
<path style="fill:#393A42;" d="M439.238,59.626v25.841c-7.269-2.656-15.734-1.054-21.573,4.785V74.832
	c-4.227,0-7.867-0.598-11.02-1.642c5.535-29.947-7.958-65.54-33.302-65.54h13.919C415.962,7.65,439.238,30.916,439.238,59.626z"/>
<path style="fill:#FCD2BE;" d="M154.601,38.671v76.783c0,35.188-28.538,63.725-63.736,63.725c-9.428,0-18.369-2.048-26.419-5.718
	v-0.01c-19.474-8.881-33.698-27.28-36.709-49.259c-2.828-0.993-5.484-2.616-7.755-4.886c-8.029-8.019-8.029-21.036,0-29.055
	c8.019-8.039,21.046-8.039,29.075,0l5.353-30.687l3.65-20.894L154.601,38.671L154.601,38.671z"/>
<path style="fill:#FAB998;" d="M64.446,173.451c-19.474-8.881-33.698-27.28-36.709-49.259c-2.828-0.993-5.484-2.616-7.755-4.886
	c-8.029-8.019-8.029-21.036,0-29.055c8.019-8.039,21.046-8.039,29.075,0l5.353-30.687l16.778,3.406
	C64.132,75.167,34.337,119.681,64.446,173.451z"/>
<path style="fill:#F9CE55;" d="M184.395,7.599c0,30.585-24.797,55.372-55.372,55.372H71.188v5.14
	c0,12.226-9.915,22.131-22.141,22.131c-5.92-5.92-14.568-7.471-21.908-4.653V62.971c0-30.575,24.797-55.372,55.372-55.372
	C82.512,7.599,184.395,7.599,184.395,7.599z"/>
<path style="fill:#E2A11E;" d="M127.704,7.599H82.512c-30.575,0-55.372,24.797-55.372,55.372v22.617
	c7.34-2.818,15.987-1.267,21.908,4.653c12.226,0,22.141-9.905,22.141-22.131v-5.14h1.145C72.332,32.396,97.129,7.599,127.704,7.599z
	"/>
<path style="fill:#369AB2;" d="M140.267,332.582c0,0-39.071,19.535-78.628,11.892c-14.801-2.849-29.673-9.509-42.588-22.425
	c0,0,12.378-82.916,35.573-131.374c3.082-6.437,6.356-12.267,9.823-17.214l14.426,1.115l29.156,2.261
	c0,4.055,0.517,11.993,1.581,22.343C113.219,234.582,123.133,298.327,140.267,332.582z"/>
<path style="fill:#025970;" d="M61.639,344.474c-14.801-2.849-29.673-9.509-42.588-22.425c0,0,15.886-106.425,45.396-148.588
	l14.426,1.115l4.177,4.126C72.252,200.874,46.969,286.669,61.639,344.474z"/>
<path style="fill:#EF4A6E;" d="M326.459,332.582c0,0,39.071,19.535,78.628,11.892c14.801-2.849,29.673-9.509,42.588-22.425
	c0,0-15.886-106.425-45.396-148.588l-14.426,1.115l-29.156,2.261C358.697,194.761,348.6,288.311,326.459,332.582z"/>
<path style="fill:#D8254F;" d="M405.087,344.474c14.801-2.849,29.673-9.509,42.588-22.425c0,0-15.886-106.425-45.396-148.588
	l-14.426,1.115l-4.177,4.126C394.473,200.874,419.756,286.669,405.087,344.474z"/>
<path d="M107.812,100.562V90.02c0-4.199-3.404-7.603-7.603-7.603s-7.603,3.404-7.603,7.603v10.541c0,4.199,3.404,7.603,7.603,7.603
	S107.812,104.761,107.812,100.562z"/>
<path d="M120.012,90.02v10.541c0,4.199,3.404,7.603,7.603,7.603s7.603-3.404,7.603-7.603V90.02c0-4.199-3.404-7.603-7.603-7.603
	C123.415,82.417,120.012,85.821,120.012,90.02z"/>
<path d="M83.621,129.597c-2.084-3.647-6.728-4.913-10.374-2.829c-3.646,2.083-4.913,6.727-2.829,10.374
	c6.516,11.405,17.68,17.846,32.283,18.626c0.138,0.007,0.275,0.011,0.412,0.011c4.012,0,7.37-3.144,7.586-7.198
	c0.224-4.193-2.994-7.774-7.187-7.998C94.062,140.077,87.556,136.484,83.621,129.597z"/>
<path d="M20.913,129.44c6.568,32.975,35.915,57.343,69.952,57.343c39.336,0,71.339-31.998,71.339-71.329V79.617
	c0-4.199-3.404-7.603-7.603-7.603s-7.603,3.404-7.603,7.603v35.837c0,30.946-25.181,56.122-56.132,56.122
	c-27.911,0-51.811-20.815-55.594-48.416c-0.387-2.825-2.324-5.196-5.013-6.141c-1.851-0.65-3.5-1.69-4.902-3.092
	c-2.445-2.442-3.791-5.69-3.791-9.147s1.346-6.706,3.795-9.15c1.312-1.312,2.823-2.3,4.506-2.942
	c4.774-1.833,10.191-0.682,13.74,2.865l0.01,0.01c0.013,0.013,0.028,0.024,0.042,0.039c0.066,0.067,0.138,0.127,0.206,0.191
	c1.542,1.449,3.541,2.133,5.52,2.049C64.799,97.67,77.44,85.715,78.689,70.575h50.335c34.723,0,62.971-28.249,62.971-62.972
	c0-4.199-3.404-7.603-7.603-7.603H82.513C47.79,0,19.541,28.249,19.541,62.972c0,4.199,3.404,7.603,7.603,7.603
	s7.603-3.404,7.603-7.603c0-26.339,21.427-47.766,47.765-47.766h93.671c-3.652,22.738-23.409,40.162-47.16,40.162H71.187
	c-4.199,0-7.603,3.404-7.603,7.603v5.137c0,7.145-5.187,13.088-11.991,14.295c-7.691-5.871-17.983-7.444-27.162-3.919
	c-3.682,1.404-6.988,3.554-9.821,6.388c-5.322,5.315-8.252,12.385-8.252,19.907s2.931,14.592,8.248,19.903
	C16.502,126.578,18.612,128.169,20.913,129.44z"/>
<path d="M132.973,289.139c-1.066-4.061-5.225-6.488-9.286-5.421c-4.061,1.068-6.488,5.225-5.421,9.286
	c3.662,13.929,7.628,25.891,11.829,35.687c-17.979,7.055-67.904,22.254-102.909-9.393c2.733-16.666,14.466-83.181,33.79-124.261
	c1.787-3.8,0.156-8.329-3.643-10.116c-3.8-1.788-8.329-0.156-10.116,3.643c-23.07,49.046-35.182,128.984-35.686,132.362
	c-0.356,2.383,0.44,4.794,2.144,6.498c6.652,6.652,14.121,12.065,22.296,16.227c0.068,0.167,0.133,0.336,0.214,0.5
	c0.365,0.746,35.951,75.617-8.048,156.614c-1.28,2.356-1.225,5.212,0.147,7.516c1.372,2.304,3.853,3.716,6.535,3.716H61.17
	c4.199,0,7.603-3.404,7.603-7.603c0-4.199-3.404-7.603-7.603-7.603H47.153c19.396-41.725,19.964-80.81,16.7-107.139
	c-2.037-16.423-5.708-29.802-8.783-38.904c8.143,2.043,16.779,3.099,25.862,3.099c5.677,0,11.528-0.402,17.528-1.215
	c5.305-0.717,10.329-1.699,14.974-2.804c7.276,18.965,26.603,82.778-10.421,150.937c-1.28,2.356-1.225,5.212,0.147,7.516
	c1.372,2.304,3.853,3.716,6.535,3.716h26.352c4.199,0,7.603-3.404,7.603-7.603c0-4.199-3.404-7.603-7.603-7.603h-14.014
	c19.395-41.725,19.964-80.81,16.7-107.139c-2.463-19.863-7.315-35.267-10.614-44.041c9.285-3.134,15.113-6.013,15.548-6.23
	c1.803-0.902,3.175-2.484,3.813-4.396c0.638-1.913,0.489-4.001-0.413-5.805C142.076,319.2,137.334,305.727,132.973,289.139z"/>
<path d="M374.116,100.562V90.02c0-4.199-3.404-7.603-7.603-7.603c-4.199,0-7.603,3.404-7.603,7.603v10.541
	c0,4.199,3.404,7.603,7.603,7.603C370.711,108.165,374.116,104.761,374.116,100.562z"/>
<path d="M346.71,100.562V90.02c0-4.199-3.404-7.603-7.603-7.603c-4.199,0-7.603,3.404-7.603,7.603v10.541
	c0,4.199,3.404,7.603,7.603,7.603C343.306,108.165,346.71,104.761,346.71,100.562z"/>
<path d="M356.023,148.58c0.216,4.055,3.573,7.198,7.586,7.198c0.136,0,0.274-0.003,0.412-0.011
	c14.602-0.78,25.767-7.22,32.283-18.626c2.083-3.645,0.817-8.291-2.829-10.374c-3.647-2.082-8.291-0.817-10.374,2.829
	c-3.935,6.888-10.442,10.48-19.891,10.985C359.017,140.805,355.799,144.387,356.023,148.58z"/>
<path d="M375.852,186.781c34.034,0,63.379-24.367,69.951-57.341c2.302-1.269,4.413-2.859,6.307-4.754
	c5.323-5.316,8.255-12.387,8.255-19.91s-2.932-14.594-8.247-19.902c-5.316-5.323-12.387-8.254-19.911-8.254
	c-2.37,0-4.696,0.291-6.936,0.856v-2.644c0-4.199-3.404-7.603-7.603-7.603c-21.285,0-23.12-19.756-23.256-21.965
	c-0.149-3.003-2.054-5.636-4.859-6.717c-2.805-1.082-5.984-0.408-8.11,1.718c-12.475,12.475-43.706,13.431-61.171,12.416
	c3.343-21.179,21.725-37.427,43.828-37.427h23.166c7.665,0,15.216,1.983,21.838,5.735c3.653,2.07,8.293,0.787,10.364-2.867
	c2.07-3.654,0.787-8.294-2.867-10.364c-8.904-5.046-19.048-7.712-29.334-7.712H364.1c-32.851,0-59.578,26.727-59.578,59.578
	c0,3.858,2.891,7.105,6.723,7.553c0.582,0.068,14.449,1.648,31.057,0.665c16.569-0.982,29.84-4.124,39.643-9.367
	c3.861,10.108,12.255,20.769,28.119,23.365v8.407c0,3.075,1.852,5.847,4.694,7.024c2.841,1.176,6.112,0.526,8.286-1.648
	c2.448-2.448,5.702-3.797,9.163-3.797c3.459,0,6.708,1.347,9.158,3.801c2.446,2.443,3.794,5.692,3.794,9.15
	s-1.347,6.707-3.798,9.154c-1.398,1.398-3.042,2.433-4.889,3.079c-2.696,0.942-4.637,3.316-5.025,6.145
	c-3.784,27.604-27.685,48.42-55.594,48.42c-30.947,0-56.125-25.178-56.125-56.125V82.942c0-4.199-3.404-7.603-7.603-7.603
	c-4.199,0-7.603,3.404-7.603,7.603v32.507C304.521,154.782,336.519,186.781,375.852,186.781z"/>
<path d="M431.635,59.626c0,4.199,3.404,7.603,7.603,7.603c4.199,0,7.603-3.404,7.603-7.603c0-10.737-2.889-21.264-8.357-30.444
	c-2.148-3.608-6.815-4.792-10.423-2.642c-3.608,2.148-4.791,6.815-2.642,10.423C429.486,43.79,431.635,51.627,431.635,59.626z"/>
<path d="M500.071,361.498c-6.898-1.916-11.62-8.168-11.483-15.202c0.894-45.875-15.716-80.44-29.809-101.358
	c-12.909-19.162-25.968-30.587-30.135-33.993c-2.824-7.876-5.871-15.439-9.136-22.381c-1.787-3.801-6.317-5.432-10.116-3.643
	c-3.8,1.787-5.431,6.316-3.643,10.116c19.324,41.083,31.058,107.604,33.79,124.265c-17.512,15.873-40.643,22.035-68.822,18.32
	c-14.449-1.905-26.849-6.079-34.085-8.925c18.579-43.212,26.578-114.269,28.057-128.774c0.426-4.178-2.616-7.909-6.793-8.335
	c-4.184-0.426-7.909,2.616-8.335,6.793c-0.516,5.061-1.126,10.392-1.826,15.906c-61.05-19.373-94.407-88.998-99.124-99.481V77.874
	c0-4.199-3.404-7.603-7.603-7.603s-7.603,3.404-7.603,7.603v38.523c0,1,0.197,1.989,0.58,2.913
	c0.396,0.954,9.91,23.657,29.08,48.823c23.902,31.377,52.321,52.477,82.561,61.409c-5.37,35.98-14.194,76.096-25.967,99.642
	c-0.902,1.803-1.05,3.892-0.413,5.805c0.638,1.913,2.009,3.494,3.813,4.396c0.434,0.217,6.261,3.095,15.545,6.229
	c-3.298,8.774-8.152,24.178-10.614,44.042c-3.264,26.329-2.696,65.414,16.7,107.139h-14.014c-4.199,0-7.603,3.404-7.603,7.603
	c0,4.199,3.404,7.603,7.603,7.603h26.352c2.681,0,5.164-1.412,6.535-3.716c1.371-2.304,1.426-5.16,0.147-7.516
	c-18.361-33.803-25.326-70.359-20.699-108.656c2.362-19.551,7.315-34.59,10.276-42.283c4.647,1.106,9.673,2.088,14.98,2.805
	c6.002,0.811,11.849,1.214,17.528,1.214c9.082,0,17.717-1.056,25.859-3.099c-3.075,9.103-6.747,22.48-8.783,38.904
	c-3.264,26.329-2.697,65.414,16.7,107.139h-14.014c-4.199,0-7.603,3.404-7.603,7.603c0,4.199,3.404,7.603,7.603,7.603h26.352
	c2.681,0,5.164-1.412,6.535-3.716c1.371-2.304,1.426-5.16,0.147-7.516c-18.362-33.803-25.326-70.359-20.699-108.656
	c3.471-28.725,12.537-47.723,12.656-47.968c0.078-0.161,0.142-0.325,0.208-0.49c8.177-4.163,15.647-9.576,22.3-16.229
	c1.704-1.704,2.499-4.115,2.144-6.498c-0.338-2.264-5.888-38.903-16.454-77.589c16.084,20.368,35.573,55.022,34.644,102.662
	c-0.273,13.977,9.028,26.375,22.616,30.15c0.68,0.19,1.366,0.279,2.039,0.279c3.33,0,6.387-2.205,7.322-5.571
	C506.486,366.814,504.118,362.622,500.071,361.498z"/>
<path d="M217.296,70.27c-4.199,0-7.603,3.404-7.603,7.603v36.94c-2.66,5.953-14.457,30.903-35.338,54.908
	c-17.286,19.872-35.912,33.807-55.706,41.751c-0.687-5.565-1.174-10.055-1.484-13.092c-0.426-4.178-4.156-7.219-8.335-6.793
	c-4.178,0.426-7.219,4.157-6.793,8.335c0.369,3.622,0.984,9.258,1.885,16.311c-11.579,2.846-23.523,3.745-35.803,2.68
	c-4.178-0.361-7.868,2.735-8.232,6.919c-0.362,4.183,2.735,7.869,6.919,8.232c3.671,0.317,7.318,0.476,10.951,0.476
	c9.569,0,18.996-1.11,28.236-3.289c1.677,11.314,3.888,24.429,6.724,38.029c0.748,3.588,3.91,6.052,7.435,6.052
	c0.514,0,1.037-0.053,1.56-0.162c4.111-0.858,6.748-4.884,5.891-8.995c-2.956-14.176-5.218-27.817-6.893-39.357
	c23.436-8.646,45.427-24.478,65.119-47.117c25.408-29.211,37.969-59.132,38.491-60.391c0.383-0.924,0.58-1.913,0.58-2.913V77.875
	C224.899,73.674,221.496,70.27,217.296,70.27z"/>
<path d="M236.483,44.419V34.282c0-4.199-3.404-7.603-7.603-7.603s-7.603,3.404-7.603,7.603v10.138c0,4.199,3.404,7.603,7.603,7.603
	S236.483,48.618,236.483,44.419z"/>
<path d="M258.117,59.857c1.945,0,3.892-0.742,5.376-2.227l5.069-5.069c2.969-2.969,2.969-7.784,0-10.753
	c-2.968-2.969-7.783-2.969-10.752,0l-5.069,5.069c-2.969,2.969-2.969,7.784,0,10.753C254.225,59.115,256.171,59.857,258.117,59.857z
	"/>
<path d="M189.196,52.561l5.069,5.069c1.484,1.484,3.431,2.227,5.376,2.227s3.892-0.742,5.376-2.227
	c2.969-2.969,2.969-7.784,0-10.753l-5.069-5.069c-2.969-2.969-7.784-2.968-10.752,0C186.227,44.777,186.227,49.591,189.196,52.561z"
	/>
<g>
</g>
<g>
</g>
<g>
</g>
<g>
</g>
<g>
</g>
<g>
</g>
<g>
</g>
<g>
</g>
<g>
</g>
<g>
</g>
<g>
</g>
<g>
</g>
<g>
</g>
<g>
</g>
<g>
</g>
</svg>
